<svg width="203" height="28" viewBox="0 0 203 28" fill="none" xmlns="http://www.w3.org/2000/svg">
<path d="M2.50566 14.6499C-0.835221 11.2986 -0.835221 5.86491 2.50566 2.51354C5.84654 -0.837841 11.2632 -0.837842 14.6041 2.51354L15.8139 3.72717L17.0238 2.51353C20.3646 -0.837844 25.7813 -0.837844 29.1222 2.51353C32.463 5.86491 32.463 11.2986 29.1222 14.6499L15.8139 28L2.50566 14.6499Z" fill="white"/>
<path d="M16.8778 14.6499C13.537 11.2986 13.537 5.86491 16.8778 2.51354C20.2187 -0.837841 25.6354 -0.837842 28.9762 2.51354L30.1861 3.72717L31.3959 2.51353C34.7368 -0.837844 40.1535 -0.837844 43.4943 2.51353C46.8352 5.86491 46.8352 11.2986 43.4943 14.6499L30.1861 28L16.8778 14.6499Z" fill="#FF4081"/>
<path d="M51 25.8V2.13333H62.0543C63.2298 2.13333 64.3149 2.36667 65.3096 2.83333C66.3043 3.3 67.1633 3.93333 67.8867 4.73333C68.6101 5.51111 69.1639 6.38889 69.5482 7.36667C69.9551 8.34445 70.1586 9.33333 70.1586 10.3333C70.1586 11.2444 70.0229 12.1222 69.7517 12.9667C69.4804 13.8111 69.0848 14.5889 68.5649 15.3C68.0449 15.9889 67.4233 16.5889 66.6999 17.1L71.7862 25.8H64.5297L60.2911 18.5333H57.6123V25.8H51ZM57.6123 12.8667H61.7831C62.0543 12.8667 62.3143 12.7667 62.563 12.5667C62.8116 12.3667 63.0151 12.0778 63.1733 11.7C63.3542 11.3222 63.4446 10.8667 63.4446 10.3333C63.4446 9.77778 63.3429 9.32222 63.1394 8.96667C62.9586 8.58889 62.7212 8.3 62.4273 8.1C62.1561 7.9 61.8848 7.8 61.6135 7.8H57.6123V12.8667Z" fill="white"/>
<path d="M91.0399 20.1333V25.8H73.882V2.13333H90.7347V7.8H80.4942V11.1333H89.2427V16.4H80.4942V20.1333H91.0399Z" fill="white"/>
<path d="M104.627 26C102.705 26 101.055 25.6889 99.6758 25.0667C98.2969 24.4444 97.1666 23.5889 96.2849 22.5C95.4259 21.4111 94.7929 20.1667 94.386 18.7667C93.9791 17.3444 93.7757 15.8556 93.7757 14.3V2.13333H100.388V14.3C100.388 15.0778 100.467 15.8222 100.625 16.5333C100.784 17.2444 101.032 17.8778 101.371 18.4333C101.71 18.9889 102.14 19.4333 102.66 19.7667C103.202 20.0778 103.858 20.2333 104.627 20.2333C105.418 20.2333 106.085 20.0778 106.627 19.7667C107.17 19.4333 107.599 18.9889 107.916 18.4333C108.255 17.8556 108.503 17.2111 108.662 16.5C108.82 15.7889 108.899 15.0556 108.899 14.3V2.13333H115.511V14.3C115.511 15.9444 115.285 17.4778 114.833 18.9C114.404 20.3222 113.748 21.5667 112.866 22.6333C111.985 23.7 110.855 24.5333 109.476 25.1333C108.119 25.7111 106.503 26 104.627 26Z" fill="white"/>
<path d="M125.927 14.1667V25.8H119.315V2.13333H124.469L134.133 14.1667V2.13333H140.745V25.8H135.489L125.927 14.1667Z" fill="white"/>
<path d="M144.879 25.8V2.13333H151.491V25.8H144.879Z" fill="white"/>
<path d="M166.492 26C164.661 26 162.999 25.6667 161.507 25C160.015 24.3111 158.727 23.4 157.642 22.2667C156.579 21.1111 155.754 19.8222 155.166 18.4C154.601 16.9556 154.319 15.4667 154.319 13.9333C154.319 12.3556 154.624 10.8556 155.234 9.43333C155.845 8.01111 156.692 6.74445 157.777 5.63333C158.885 4.5 160.185 3.61111 161.677 2.96667C163.191 2.32222 164.842 2 166.628 2C168.459 2 170.12 2.34444 171.612 3.03333C173.104 3.7 174.381 4.61111 175.444 5.76667C176.506 6.92222 177.32 8.22222 177.885 9.66667C178.473 11.0889 178.767 12.5556 178.767 14.0667C178.767 15.6222 178.462 17.1111 177.851 18.5333C177.264 19.9556 176.416 21.2333 175.308 22.3667C174.223 23.4778 172.935 24.3667 171.443 25.0333C169.951 25.6778 168.3 26 166.492 26ZM161.033 14C161.033 14.8 161.146 15.5778 161.372 16.3333C161.598 17.0667 161.937 17.7333 162.389 18.3333C162.841 18.9111 163.406 19.3778 164.084 19.7333C164.785 20.0667 165.61 20.2333 166.56 20.2333C167.509 20.2333 168.334 20.0556 169.035 19.7C169.736 19.3444 170.301 18.8667 170.731 18.2667C171.183 17.6444 171.51 16.9667 171.714 16.2333C171.94 15.4778 172.053 14.7111 172.053 13.9333C172.053 13.1333 171.94 12.3667 171.714 11.6333C171.488 10.9 171.149 10.2444 170.697 9.66667C170.245 9.06667 169.668 8.6 168.967 8.26667C168.267 7.93333 167.453 7.76667 166.526 7.76667C165.576 7.76667 164.751 7.94445 164.05 8.3C163.372 8.65556 162.807 9.13333 162.355 9.73333C161.903 10.3111 161.564 10.9778 161.338 11.7333C161.134 12.4667 161.033 13.2222 161.033 14Z" fill="white"/>
<path d="M188.182 14.1667V25.8H181.57V2.13333H186.724L196.388 14.1667V2.13333H203V25.8H197.744L188.182 14.1667Z" fill="white"/>
</svg>
